<svg width="300" height="300" viewBox="0 0 300 300" fill="none" xmlns="http://www.w3.org/2000/svg">
<rect width="300" height="300" fill="#992601"/>
<path d="M86.2312 248.579C91.7237 247.561 97.2037 246.454 102.711 245.541C129.279 241.149 155.849 236.799 182.424 232.446C203.149 229.051 223.876 225.679 244.601 222.291C245.096 222.211 245.574 222.046 246.281 221.866C240.266 185.179 234.271 148.606 228.301 112.176C227.686 112.049 227.481 111.941 227.299 111.976C222.701 112.791 217.159 112.339 213.784 114.821C210.529 117.221 209.489 122.651 207.529 126.774C205.341 131.371 203.164 135.979 201.071 140.624C200.244 142.464 199.241 143.519 196.991 143.749C192.584 144.196 188.221 145.121 183.189 145.954C187.831 136.196 192.226 126.956 196.926 117.074C193.004 117.651 189.616 118.489 186.211 118.581C180.719 118.729 177.836 121.379 175.879 126.421C173.216 133.289 169.706 139.826 166.624 146.531C165.871 148.174 164.949 149.084 162.969 149.316C158.466 149.839 154.001 150.729 148.881 151.576C153.534 141.796 157.936 132.556 162.629 122.694C158.841 123.254 155.561 124.021 152.249 124.169C146.819 124.411 143.561 126.639 141.576 132.001C139.026 138.901 135.409 145.401 132.341 152.111C131.526 153.894 130.484 154.739 128.411 154.969C123.999 155.456 119.634 156.356 114.579 157.196C119.236 147.396 123.626 138.161 128.359 128.211C122.226 129.229 116.659 130.076 111.139 131.166C110.419 131.309 109.804 132.629 109.384 133.519C105.546 141.594 101.726 149.679 97.9837 157.799C97.2187 159.459 96.2963 160.341 94.3338 160.569C89.8188 161.096 85.3488 161.969 80.2738 162.796C84.9388 152.996 89.3362 143.751 94.0262 133.891C88.9087 134.681 84.3463 135.389 79.7838 136.094C79.6913 135.921 79.6013 135.749 79.5088 135.579C83.3988 133.201 87.2862 130.826 91.6687 128.149C88.3612 126.641 85.4812 125.331 82.6037 124.019C76.7387 121.341 70.8338 118.746 65.0312 115.941C63.1213 115.016 61.6512 115.039 59.9062 116.234C57.9487 117.576 55.7912 118.619 53.7187 119.794C53.7187 120.001 53.7187 120.211 53.7187 120.419C57.9337 127.321 62.1663 134.214 66.3413 141.144C66.7463 141.816 66.8363 142.706 66.9663 143.511C70.6913 166.044 74.3963 188.579 78.1163 211.111C80.1788 223.604 82.2712 236.099 84.3537 248.589C84.9787 248.579 85.6037 248.579 86.2312 248.579ZM82.8137 172.701C129.951 164.979 176.641 157.329 223.476 149.656C224.021 153.096 224.489 156.029 224.999 159.234C178.046 166.926 131.334 174.584 84.4062 182.274C83.8738 179.069 83.3837 176.129 82.8137 172.701ZM93.2837 236.191C92.7937 233.539 92.4487 231.286 91.9437 229.069C91.5237 227.219 92.1713 226.461 94.0188 226.169C105.824 224.299 117.619 222.354 129.416 220.421C155.576 216.144 181.736 211.861 207.896 207.581C215.966 206.261 224.041 204.946 232.306 203.596C232.829 206.896 233.309 209.921 233.821 213.159C186.861 220.859 140.214 228.501 93.2837 236.191Z" fill="#E6B13F"/>
<path d="M208.159 58.1563C203.594 50.5713 199.111 43.1238 194.469 35.4113C185.066 41.0563 175.844 46.5938 166.119 52.4338C167.799 53.2313 169.026 53.8313 170.271 54.4013C177.826 57.8613 185.406 61.2763 192.929 64.7988C194.589 65.5788 195.899 65.6813 197.521 64.6163C200.899 62.3963 204.429 60.4013 208.159 58.1563Z" fill="#E6B13F"/>
<path d="M121.486 110.221C111.894 105.846 102.916 101.726 93.9063 97.6838C93.1463 97.3388 91.9413 97.1288 91.3063 97.4888C86.5438 100.214 81.8688 103.104 76.6988 106.221C84.9738 110.011 92.8913 113.349 100.519 117.249C104.514 119.291 107.654 119.304 111.239 116.539C114.251 114.221 117.726 112.504 121.486 110.221Z" fill="#E6B13F"/>
<path d="M136.249 70.3964C146.056 74.8664 155.181 79.0589 164.354 83.1464C165.046 83.4539 166.224 83.2864 166.919 82.8864C171.504 80.2439 176.014 77.4789 181.059 74.4464C177.299 72.7164 173.976 71.1839 170.651 69.6564C164.989 67.0589 159.339 64.4314 153.639 61.9189C152.811 61.5539 151.516 61.3364 150.821 61.7289C146.126 64.3864 141.534 67.2214 136.249 70.3964Z" fill="#E6B13F"/>
<path d="M106.469 88.3089C113.781 91.6489 120.956 94.2564 127.424 98.0689C133.599 101.709 138.596 101.274 143.884 96.8689C145.919 95.1739 148.434 94.0589 151.169 92.4164C149.661 91.6564 148.609 91.0838 147.521 90.5863C139.869 87.0888 132.181 83.6639 124.571 80.0789C122.789 79.2414 121.461 79.1464 119.724 80.2789C115.554 82.9989 111.214 85.4589 106.469 88.3089Z" fill="#E6B13F"/>
</svg>
